PathFileType	4	(X/Y/Z)	T1_P1_Vision_NoMovement_1_0-649.trc
DataRate	CameraRate	NumFrames	NumMarkers	Units	OrigDataRate	OrigDataStartFrame	OrigNumFrames
60	60	4	27	m	60	162	649
Frame#	Time	RHip			RKnee			RAnkle			RBigToe			RSmallToe			RHeel			LHip			LKnee			LAnkle			LBigToe			LSmallToe			LHeel			Neck			Head			Nose			RShoulder			RElbow			RWrist			RThumb			RIndex			RPinky			LShoulder			LElbow			LWrist			LThumb			LIndex			LPinky		
		X1	Y1	Z1	X2	Y2	Z2	X3	Y3	Z3	X4	Y4	Z4	X5	Y5	Z5	X6	Y6	Z6	X7	Y7	Z7	X8	Y8	Z8	X9	Y9	Z9	X10	Y10	Z10	X11	Y11	Z11	X12	Y12	Z12	X13	Y13	Z13	X14	Y14	Z14	X15	Y15	Z15	X16	Y16	Z16	X17	Y17	Z17	X18	Y18	Z18	X19	Y19	Z19	X20	Y20	Z20	X21	Y21	Z21	X22	Y22	Z22	X23	Y23	Z23	X24	Y24	Z24	X25	Y25	Z25	X26	Y26	Z26	X27	Y27	Z27
163	2.716666666666667	-65.16435156414785	3769.430757410647	-547.4910871929287	288.7774152076183	3937.557916977319	-516.7655849166954	635.0030893949739	4143.781282418467	-530.1381545762301	689.0815512137975	4000.327996598174	-453.15758912337117	686.5089540413976	3955.4780528251995	-499.0773147343514	674.2370250929694	4172.0374149446025	-529.4286923229733	-101.97827662436356	3905.5156507725296	-364.03023306661225	234.14420316823157	3975.7404568485454	-370.1589115874284	625.4619830073536	4262.252502235066	-460.1158122815363	664.213831071693	3975.935616075849	-348.2115001105844	674.6162793342858	4122.602305186032	-344.34213552293585	671.4745886167199	4321.030431485425	-494.3657572928382	-677.6926103085816	3680.132178153297	-512.5822339116639	-916.4636104194159	3540.3460629875035	-431.9756738651638	-783.216394748969	3568.2602933594553	-406.83923365411914	-561.2236324020068	3678.8816866709963	-673.1493446991445	-288.8317567150134	3690.316277492748	-694.8998311431557	-24.628726283058832	3642.714636372819	-614.2723573407325	91.58279527972913	3741.911686210501	-561.5565281409406	117.57923768081113	3692.775374686345	-555.0256369836595	98.66463843605001	3644.477735501817	-584.340166223933	-619.069504266445	3790.1987685364325	-384.15676657337144	-397.4863092853826	3978.117636167709	-345.2195652664176	-127.37445842074162	3948.0509330692844	-243.52679526422398	11.567675825858345	3850.1886433036316	-246.6727890203489	22.203077967811435	3876.8156344087383	-202.62573970635933	0.433363753564878	3976.523954875806	-215.7505853906645
164	2.7333333333333334	-65.1104147761111	3764.865065366076	-546.240118953578	288.58160823070534	3935.3192775870375	-515.6017139367987	638.4505349502816	4146.177033481798	-530.4189671496968	691.4433221414035	4004.012426595709	-453.57012637179923	686.7094510412956	3957.1555508923934	-500.98537765489004	675.1781404617302	4172.868038642225	-527.7882177773623	-101.99102235579561	3905.5791431188445	-364.07983097416025	234.01829680632312	3972.2295703320997	-369.2920798785668	624.910003754303	4261.886413750981	-461.6003660714257	667.7419849768442	3985.9177480115654	-350.56292948717305	674.8787837671164	4123.263836913098	-344.01342623394163	672.2003669823952	4321.810844792428	-496.12357283431027	-677.6941666019007	3680.052073487955	-512.5416078755577	-916.4942354055106	3540.3466377732807	-431.98004544768014	-784.9818336520822	3574.14217917691	-408.1761174792788	-561.2230511656885	3678.570037940663	-672.8931148945961	-288.3782398190533	3683.242295021524	-692.8482010902522	-24.295429824937116	3642.763663170086	-614.2796911422585	91.72329752822529	3741.990320368268	-561.6341391846836	117.6406738238824	3692.6924399236605	-554.9762018938189	99.67782165584428	3644.378374454345	-584.1833906597503	-619.0688598248161	3790.16685372946	-384.13527637172473	-396.83358864082345	3978.470671559743	-345.3470782561524	-127.28497959632409	3943.85457154153	-242.75682178270029	12.83009520160186	3848.8092513748916	-247.43058819558556	22.542562143394434	3876.847786678641	-202.5214159674522	2.0102124559389907	3977.5120502320633	-216.12881462401128
165	2.75	-65.09199333883157	3761.912118338855	-545.4324151498557	288.4126104113184	3936.2797969736293	-517.2199650047744	639.9858924029501	4150.140630136571	-531.2649172479428	693.2174538982938	4010.080346994778	-454.8553462953259	686.5202487471576	3960.9840357956055	-502.4257723308885	675.0705012850672	4175.960784526246	-528.0387252686688	-102.01771601396595	3905.6822725287407	-364.1376848399874	233.16603570459665	3971.806656424021	-368.79191793306893	625.0508943085299	4262.024804509819	-462.43698078831494	670.4138957292752	3993.652047262654	-352.54897561206644	676.0913506427914	4124.658721756057	-344.06526960172744	673.0441048641276	4323.062373207313	-498.6155656070647	-677.6912222504219	3679.9965948666154	-512.5266078966849	-916.5268764769402	3540.352456476681	-431.99361800380086	-786.3614712543309	3577.0805426119623	-408.87094475790246	-561.3172599637713	3679.221830419016	-673.462573506324	-287.94688566895337	3676.75246409316	-690.9581989126796	-24.63581446004767	3642.7391859917648	-614.3035887794539	91.84112733793235	3741.996804644245	-561.6600486683124	117.68614026851087	3692.5799023957784	-554.95021183921	101.80376942143053	3641.8550058549754	-583.2548270953691	-619.0602420998126	3790.160450777142	-384.09979983928383	-395.4359650243733	3979.3744502838686	-345.6869272622275	-127.4431394791312	3947.230716709773	-243.17998766879748	13.680169538543737	3851.897581147092	-250.79247912794557	21.98994648166809	3876.1536565569777	-202.35335985603123	3.2014741119080456	3978.3069899827524	-216.37808941574968
166	2.7666666666666666	-65.07838257508267	3761.671433262217	-545.6217731420084	287.4715231931628	3937.4996820454485	-518.8750228925225	639.7802461538831	4152.576422170156	-531.9947504262183	692.9947493733898	4013.41879905114	-455.96119152897427	686.4983523270976	3963.892185398292	-503.0239959145456	675.3880870627007	4181.1639828402	-529.8869300324842	-102.04180989775963	3905.7762293042856	-364.1887500919896	232.20631619884446	3972.3783882772477	-368.71621597675295	625.9801572861611	4260.802408519607	-461.61295712955365	670.5883563543623	3994.53511519022	-352.7158878271074	678.331121198253	4126.29609573296	-344.54875453505116	674.5914643735966	4324.161550206454	-500.56735367736223	-677.6954422692988	3679.98838897295	-512.5461044099721	-916.5498019962896	3540.3494112834333	-431.99938737594005	-786.8405216093231	3577.1422568392236	-408.91307253226296	-561.5008058906333	3680.7648783498794	-674.7850559029463	-287.97256183079634	3676.844961620383	-690.9866891761714	-25.345450561623515	3642.6339525423614	-614.3145098646347	91.71804801886108	3741.4545267674475	-561.2467527852864	117.71903327458631	3692.5461341730775	-554.8046394822718	104.01108506351926	3636.230355299541	-581.6048061793322	-619.0529437702842	3790.1410504906835	-384.0632992782821	-393.6908063880444	3980.6271367401414	-346.1503238920088	-127.69004300716531	3954.5116011516234	-244.59589770129276	14.403536265856705	3858.507721375753	-256.73239170714965	21.10399581503045	3874.0449440246557	-202.28146200760062	3.6844224381207686	3978.5957748185638	-216.4114376393531
